<svg width="31" height="26" viewBox="0 0 31 26" fill="none" xmlns="http://www.w3.org/2000/svg">
<g id="Group">
<g id="Group_2">
<path id="Vector" d="M28.2754 0.927734H2.72461C1.22226 0.927734 0 2.36486 0 4.13131V22.6965C0 24.463 1.22226 25.9001 2.72461 25.9001H28.2754C29.7777 25.9001 31 24.463 31 22.6965V4.13131C31 2.36486 29.7777 0.927734 28.2754 0.927734ZM27.9198 3.06345L27.5562 3.41948L16.581 14.165C15.9546 14.7783 15.0453 14.7783 14.419 14.165L3.44385 3.41948L3.0802 3.06345H27.9198ZM1.81641 4.6053L10.7587 13.3605L1.81641 20.3581V4.6053ZM28.2754 23.7644H2.72461C2.28577 23.7644 1.91873 23.3965 1.83463 22.9093L12.2151 14.7864L13.2567 15.8063C13.9066 16.4426 14.7034 16.7607 15.5001 16.7607C16.2967 16.7607 17.0934 16.4426 17.7434 15.8063L18.785 14.7864L29.1654 22.9092C29.0813 23.3965 28.7142 23.7644 28.2754 23.7644ZM29.1836 20.3581L20.2413 13.3606L29.1836 4.6053V20.3581Z" fill="#2E86E5"/>
</g>
</g>
</svg>
