<svg width="26" height="27" viewBox="0 0 26 27" fill="none" xmlns="http://www.w3.org/2000/svg">
<g id="instagram">
<g id="Group">
<path id="Vector" d="M18.8247 0H7.17486C3.21865 0 0 3.3426 0 7.45098V19.5489C0 23.6574 3.21865 26.9998 7.17486 26.9998H18.8247C22.7812 26.9998 25.9998 23.6572 25.9998 19.5489V7.45098C26 3.3426 22.7812 0 18.8247 0ZM23.6932 19.5489C23.6932 22.3365 21.5092 24.6043 18.8248 24.6043H7.17486C4.49063 24.6044 2.30683 22.3365 2.30683 19.5489V7.45098C2.30683 4.66351 4.49063 2.39556 7.17486 2.39556H18.8247C21.5091 2.39556 23.693 4.66351 23.693 7.45098V19.5489H23.6932Z" fill="#2E86E5"/>
<path id="Vector_2" d="M12.9999 6.54297C9.30576 6.54297 6.30042 9.6639 6.30042 13.5001C6.30042 17.3362 9.30576 20.457 12.9999 20.457C16.6941 20.457 19.6994 17.3362 19.6994 13.5001C19.6994 9.6639 16.6941 6.54297 12.9999 6.54297ZM12.9999 18.0613C10.5779 18.0613 8.60725 16.0152 8.60725 13.5C8.60725 10.9846 10.5778 8.93837 12.9999 8.93837C15.4221 8.93837 17.3926 10.9846 17.3926 13.5C17.3926 16.0152 15.4219 18.0613 12.9999 18.0613Z" fill="#2E86E5"/>
<path id="Vector_3" d="M19.9804 4.51172C19.5359 4.51172 19.0993 4.69857 18.7855 5.02597C18.47 5.35176 18.2887 5.80532 18.2887 6.26846C18.2887 6.73016 18.4702 7.18356 18.7855 7.51096C19.0992 7.83675 19.5359 8.0252 19.9804 8.0252C20.4264 8.0252 20.8616 7.83675 21.1769 7.51096C21.4921 7.18356 21.6721 6.73 21.6721 6.26846C21.6721 5.80532 21.4921 5.35176 21.1769 5.02597C20.8631 4.69857 20.4264 4.51172 19.9804 4.51172Z" fill="#2E86E5"/>
</g>
</g>
</svg>
