<svg width="27" height="27" viewBox="0 0 27 27" fill="none" xmlns="http://www.w3.org/2000/svg">
<g id="linkedin" clip-path="url(#clip0)">
<path id="Vector" d="M8.43791 22.3066H4.74651V10.3887H8.43791V22.3066ZM8.80623 6.59159C8.80623 5.39827 7.83806 4.42969 6.64536 4.42969C5.44812 4.42969 4.48242 5.39827 4.48242 6.59159C4.48242 7.78532 5.44812 8.75391 6.64536 8.75391C7.83806 8.75391 8.80623 7.78532 8.80623 6.59159ZM22.2539 15.7499C22.2539 12.5506 21.578 10.1777 17.8407 10.1777C16.0448 10.1777 14.8394 11.0759 14.3473 12.0098H14.3438V10.3887H10.7578V22.3066H14.3438V16.3893C14.3438 14.8396 14.7382 13.3383 16.6591 13.3383C18.5538 13.3383 18.6152 15.1105 18.6152 16.4877V22.3066H22.2539V15.7499ZM27 23.8359V3.16406C27 1.4193 25.5807 0 23.8359 0H3.16406C1.4193 0 0 1.4193 0 3.16406V23.8359C0 25.5807 1.4193 27 3.16406 27H23.8359C25.5807 27 27 25.5807 27 23.8359V23.8359ZM23.8359 2.10938C24.4175 2.10938 24.8906 2.58254 24.8906 3.16406V23.8359C24.8906 24.4175 24.4175 24.8906 23.8359 24.8906H3.16406C2.58254 24.8906 2.10938 24.4175 2.10938 23.8359V3.16406C2.10938 2.58254 2.58254 2.10938 3.16406 2.10938H23.8359Z" fill="#2E86E5"/>
</g>
<defs>
<clipPath id="clip0">
<rect width="27" height="27" fill="white"/>
</clipPath>
</defs>
</svg>
