<svg width="186" height="30" viewBox="0 0 186 30" fill="none" xmlns="http://www.w3.org/2000/svg">
<path fill-rule="evenodd" clip-rule="evenodd" d="M32.9995 14.9999C32.9995 16.7281 32.6753 18.3885 32.0812 19.9347C32.0667 19.9813 32.0495 20.0264 32.0287 20.07C29.7369 25.8534 23.6414 29.9999 16.4998 29.9999C9.35815 29.9999 3.26261 25.8535 0.970853 20.07C0.950039 20.0264 0.932852 19.9811 0.918345 19.9347C0.324196 18.3885 0 16.7281 0 14.9999C0 13.2717 0.324196 11.6113 0.918345 10.0652C0.932694 10.0187 0.950039 9.97358 0.970853 9.92986C3.26246 4.14648 9.35815 0 16.4998 0C23.6414 0 29.7369 4.14648 32.0287 9.92986C32.0495 9.97343 32.0667 10.0187 32.0812 10.0652C32.6753 11.6113 32.9995 13.2717 32.9995 14.9999ZM14.0115 24.5063C14.8583 26.816 15.8714 27.8498 16.4998 27.8498C17.1281 27.8498 18.1412 26.816 18.9882 24.5063C19.3967 23.3917 19.7239 22.1106 19.9623 20.7168H13.0372C13.2756 22.1106 13.6028 23.3918 14.0115 24.5063ZM12.5765 14.9999C12.5765 16.224 12.6365 17.4201 12.7502 18.5666H20.2491C20.3628 17.4201 20.4229 16.224 20.4229 14.9999C20.4229 13.7759 20.3628 12.5798 20.2491 11.4333H12.7502C12.6365 12.5798 12.5765 13.7759 12.5765 14.9999ZM2.9195 11.4334C2.55888 12.5663 2.36508 13.763 2.36508 15.0001C2.36508 16.2372 2.55888 17.4337 2.9195 18.5667H10.3779C10.2672 17.3966 10.2112 16.1973 10.2112 15.0001C10.2112 13.8028 10.2674 12.6036 10.3779 11.4334H2.9195ZM18.9882 5.49367C18.1414 3.18404 17.1281 2.15022 16.4998 2.15022C15.8714 2.15022 14.8583 3.18404 14.0114 5.49367C13.6027 6.6082 13.2755 7.8893 13.0371 9.28307H19.9623C19.7241 7.88944 19.3967 6.6082 18.9882 5.49367ZM30.0799 11.4334H22.6215C22.732 12.6036 22.7881 13.8028 22.7881 15.0001C22.7881 16.1973 22.732 17.3966 22.6215 18.5667H30.0799C30.4405 17.4338 30.6343 16.2372 30.6343 15.0001C30.6343 13.763 30.4405 12.5663 30.0799 11.4334ZM22.3501 9.28321H29.1557C27.3729 6.03438 24.1207 3.56435 20.1952 2.59689C21.2077 4.28008 21.9294 6.64604 22.3501 9.28321ZM10.6493 9.28321C11.07 6.6459 11.7917 4.27994 12.8042 2.59675C8.87864 3.56435 5.62659 6.03438 3.84367 9.28321H10.6493ZM10.6493 20.7168H3.84367C5.62659 23.9658 8.87864 26.4357 12.8042 27.4033C11.7917 25.7199 11.07 23.354 10.6493 20.7168ZM22.3501 20.7168C21.9294 23.3541 21.2077 25.7201 20.1952 27.4033C24.1207 26.4357 27.3729 23.9658 29.1557 20.7168H22.3501ZM39.6311 18.31C39.3791 17.926 39.2531 17.524 39.2531 17.104V8.752H36.6431V17.158C36.6431 18.13 36.8831 18.994 37.3631 19.75C37.8431 20.494 38.4851 21.082 39.2891 21.514C40.1051 21.934 41.0051 22.144 41.9891 22.144C42.9851 22.144 43.8911 21.934 44.7071 21.514C45.5231 21.082 46.1711 20.494 46.6511 19.75C47.1311 18.994 47.3711 18.13 47.3711 17.158V8.752H44.7971V17.104C44.7971 17.524 44.6711 17.926 44.4191 18.31C44.1791 18.694 43.8491 19.006 43.4291 19.246C43.0091 19.486 42.5291 19.606 41.9891 19.606C41.4971 19.606 41.0411 19.486 40.6211 19.246C40.2131 19.006 39.8831 18.694 39.6311 18.31ZM52.5706 15.394L52.3906 14.134H50.1046V22H52.6246V18.796C52.6246 17.956 52.7926 17.266 53.1286 16.726C53.4766 16.174 53.9446 15.898 54.5326 15.898C54.9406 15.898 55.2286 16.006 55.3966 16.222C55.5766 16.426 55.6726 16.702 55.6846 17.05V22H58.2046V16.114C58.1926 15.418 57.9346 14.854 57.4306 14.422C56.9386 13.978 56.3206 13.756 55.5766 13.756C54.8566 13.756 54.2446 13.906 53.7406 14.206C53.2366 14.506 52.8466 14.902 52.5706 15.394ZM63.3121 14.134H60.7921V22H63.3121V14.134ZM61.1701 10.426C60.8821 10.666 60.7381 10.972 60.7381 11.344C60.7381 11.716 60.8821 12.022 61.1701 12.262C61.4701 12.49 61.7881 12.604 62.1241 12.604C62.4601 12.604 62.7661 12.49 63.0421 12.262C63.3301 12.022 63.4741 11.716 63.4741 11.344C63.4741 10.972 63.3301 10.666 63.0421 10.426C62.7661 10.186 62.4601 10.066 62.1241 10.066C61.7881 10.066 61.4701 10.186 61.1701 10.426ZM67.1493 21.712C67.7253 22.048 68.3793 22.216 69.1113 22.216C69.7113 22.216 70.2513 22.12 70.7313 21.928C71.2113 21.724 71.6433 21.472 72.0273 21.172V22H74.5473V7.798H72.0453V14.692C71.7333 14.368 71.3433 14.128 70.8753 13.972C70.4193 13.816 69.9393 13.738 69.4353 13.738C68.6433 13.738 67.9353 13.9 67.3113 14.224C66.6873 14.548 66.1953 15.022 65.8353 15.646C65.4753 16.27 65.2953 17.026 65.2953 17.914C65.2953 18.802 65.4573 19.57 65.7813 20.218C66.1173 20.866 66.5733 21.364 67.1493 21.712ZM71.1993 19.804C70.8633 19.996 70.4433 20.092 69.9393 20.092C69.5673 20.092 69.2193 19.996 68.8953 19.804C68.5833 19.612 68.3313 19.348 68.1393 19.012C67.9473 18.676 67.8513 18.298 67.8513 17.878C67.8513 17.458 67.9473 17.086 68.1393 16.762C68.3313 16.438 68.5833 16.186 68.8953 16.006C69.2193 15.814 69.5673 15.718 69.9393 15.718C70.4433 15.718 70.8813 15.832 71.2533 16.06C71.6253 16.288 71.8833 16.594 72.0273 16.978V18.904C71.8113 19.3 71.5353 19.6 71.1993 19.804ZM77.0857 15.808C76.7137 16.444 76.5277 17.164 76.5277 17.968C76.5277 18.856 76.7197 19.618 77.1037 20.254C77.4877 20.89 78.0157 21.376 78.6877 21.712C79.3717 22.048 80.1457 22.216 81.0097 22.216C81.9337 22.216 82.7257 22.03 83.3857 21.658C84.0457 21.286 84.5497 20.782 84.8977 20.146C85.2577 19.498 85.4377 18.772 85.4377 17.968C85.4377 17.164 85.2577 16.444 84.8977 15.808C84.5497 15.172 84.0457 14.674 83.3857 14.314C82.7257 13.942 81.9457 13.756 81.0457 13.756C80.1577 13.756 79.3717 13.942 78.6877 14.314C78.0037 14.674 77.4697 15.172 77.0857 15.808ZM79.6057 19.552C79.2457 19.132 79.0657 18.61 79.0657 17.986C79.0657 17.362 79.2457 16.846 79.6057 16.438C79.9657 16.018 80.4217 15.808 80.9737 15.808C81.5617 15.808 82.0297 16.018 82.3777 16.438C82.7257 16.846 82.8997 17.362 82.8997 17.986C82.8997 18.61 82.7257 19.132 82.3777 19.552C82.0297 19.96 81.5617 20.164 80.9737 20.164C80.4217 20.164 79.9657 19.96 79.6057 19.552ZM89.8889 15.376L89.7089 14.134H87.4229V22H89.9429V18.742C89.9429 18.286 90.0089 17.842 90.1409 17.41C90.2849 16.978 90.4889 16.624 90.7529 16.348C91.0289 16.06 91.3649 15.916 91.7609 15.916C92.1089 15.94 92.3369 16.066 92.4449 16.294C92.5649 16.51 92.6309 16.792 92.6429 17.14V22H95.1629V18.778C95.1629 18.31 95.2289 17.86 95.3609 17.428C95.5049 16.984 95.7149 16.624 95.9909 16.348C96.2789 16.06 96.6269 15.916 97.0349 15.916C97.3829 15.94 97.6049 16.066 97.7009 16.294C97.7969 16.51 97.8509 16.792 97.8629 17.14V22H100.365V16.096C100.353 15.4 100.113 14.836 99.6449 14.404C99.1889 13.96 98.5709 13.738 97.7909 13.738C97.2869 13.738 96.8009 13.882 96.3329 14.17C95.8769 14.446 95.4869 14.818 95.1629 15.286C95.0309 14.77 94.7489 14.386 94.3169 14.134C93.8969 13.87 93.3689 13.738 92.7329 13.738C92.0849 13.738 91.5209 13.882 91.0409 14.17C90.5729 14.458 90.1889 14.86 89.8889 15.376ZM113.712 8.23L107.736 22H110.31L111.39 19.408H115.782L116.808 22H119.832L113.856 8.23H113.712ZM114.918 17.212H112.308L113.64 13.99L114.918 17.212ZM126.449 21.964C126.977 21.796 127.415 21.574 127.763 21.298L126.503 19.714C126.143 20.014 125.687 20.164 125.135 20.164C124.487 20.164 123.965 19.96 123.569 19.552C123.185 19.144 122.993 18.646 122.993 18.058C122.993 17.446 123.179 16.948 123.551 16.564C123.923 16.168 124.367 15.97 124.883 15.97C125.279 15.97 125.621 16.042 125.909 16.186C126.209 16.318 126.443 16.45 126.611 16.582L127.835 14.962C127.463 14.65 127.013 14.398 126.485 14.206C125.969 14.014 125.357 13.918 124.649 13.918C123.941 13.918 123.263 14.08 122.615 14.404C121.979 14.728 121.463 15.202 121.067 15.826C120.671 16.438 120.473 17.182 120.473 18.058C120.473 19.366 120.875 20.386 121.679 21.118C122.495 21.85 123.575 22.216 124.919 22.216C125.423 22.216 125.933 22.132 126.449 21.964ZM131.012 21.784C131.612 22.072 132.278 22.216 133.01 22.216C133.478 22.216 133.886 22.144 134.234 22C134.582 21.856 134.87 21.688 135.098 21.496C135.338 21.304 135.518 21.148 135.638 21.028V22H138.158V14.134H135.818L135.656 14.944C135.416 14.644 135.092 14.368 134.684 14.116C134.288 13.864 133.7 13.738 132.92 13.738C132.26 13.738 131.636 13.918 131.048 14.278C130.46 14.626 129.986 15.124 129.626 15.772C129.266 16.42 129.086 17.188 129.086 18.076C129.086 19.024 129.26 19.804 129.608 20.416C129.956 21.028 130.424 21.484 131.012 21.784ZM135.638 18.976C135.242 19.768 134.606 20.164 133.73 20.164C133.358 20.164 133.01 20.068 132.686 19.876C132.374 19.684 132.122 19.42 131.93 19.084C131.738 18.748 131.642 18.37 131.642 17.95C131.642 17.314 131.84 16.798 132.236 16.402C132.632 15.994 133.1 15.79 133.64 15.79C134.12 15.79 134.534 15.904 134.882 16.132C135.242 16.36 135.494 16.666 135.638 17.05V18.976ZM141.997 21.712C142.573 22.048 143.227 22.216 143.959 22.216C144.559 22.216 145.099 22.12 145.579 21.928C146.059 21.724 146.491 21.472 146.875 21.172V22H149.395V7.798H146.893V14.692C146.581 14.368 146.191 14.128 145.723 13.972C145.267 13.816 144.787 13.738 144.283 13.738C143.491 13.738 142.783 13.9 142.159 14.224C141.535 14.548 141.043 15.022 140.683 15.646C140.323 16.27 140.143 17.026 140.143 17.914C140.143 18.802 140.305 19.57 140.629 20.218C140.965 20.866 141.421 21.364 141.997 21.712ZM146.047 19.804C145.711 19.996 145.291 20.092 144.787 20.092C144.415 20.092 144.067 19.996 143.743 19.804C143.431 19.612 143.179 19.348 142.987 19.012C142.795 18.676 142.699 18.298 142.699 17.878C142.699 17.458 142.795 17.086 142.987 16.762C143.179 16.438 143.431 16.186 143.743 16.006C144.067 15.814 144.415 15.718 144.787 15.718C145.291 15.718 145.729 15.832 146.101 16.06C146.473 16.288 146.731 16.594 146.875 16.978V18.904C146.659 19.3 146.383 19.6 146.047 19.804ZM153.409 21.676C154.081 22.036 154.897 22.216 155.857 22.216C156.289 22.216 156.745 22.144 157.225 22C157.717 21.856 158.173 21.664 158.593 21.424L157.477 19.552C157.225 19.708 156.967 19.834 156.703 19.93C156.451 20.026 156.187 20.074 155.911 20.074C155.251 20.074 154.729 19.852 154.345 19.408L160.105 17.572C159.889 16.336 159.415 15.394 158.683 14.746C157.963 14.086 157.039 13.756 155.911 13.756C155.071 13.756 154.309 13.948 153.625 14.332C152.941 14.704 152.395 15.208 151.987 15.844C151.579 16.48 151.375 17.194 151.375 17.986C151.375 18.814 151.549 19.546 151.897 20.182C152.245 20.818 152.749 21.316 153.409 21.676ZM153.859 18.004V17.842C153.859 17.194 154.027 16.678 154.363 16.294C154.699 15.91 155.149 15.718 155.713 15.718C156.193 15.718 156.553 15.832 156.793 16.06C157.033 16.276 157.207 16.534 157.315 16.834L153.859 18.004ZM164.403 15.376L164.223 14.134H161.937V22H164.457V18.742C164.457 18.286 164.523 17.842 164.655 17.41C164.799 16.978 165.003 16.624 165.267 16.348C165.543 16.06 165.879 15.916 166.275 15.916C166.623 15.94 166.851 16.066 166.959 16.294C167.079 16.51 167.145 16.792 167.157 17.14V22H169.677V18.778C169.677 18.31 169.743 17.86 169.875 17.428C170.019 16.984 170.229 16.624 170.505 16.348C170.793 16.06 171.141 15.916 171.549 15.916C171.897 15.94 172.119 16.066 172.215 16.294C172.311 16.51 172.365 16.792 172.377 17.14V22H174.879V16.096C174.867 15.4 174.627 14.836 174.159 14.404C173.703 13.96 173.085 13.738 172.305 13.738C171.801 13.738 171.315 13.882 170.847 14.17C170.391 14.446 170.001 14.818 169.677 15.286C169.545 14.77 169.263 14.386 168.831 14.134C168.411 13.87 167.883 13.738 167.247 13.738C166.599 13.738 166.035 13.882 165.555 14.17C165.087 14.458 164.703 14.86 164.403 15.376ZM179.996 21.586L178.106 25.78H180.536L185.612 14.134H183.344L181.256 18.778L179.186 14.134H176.36L179.996 21.586Z" fill="#0056B3"/>
</svg>
