<svg width="14" height="14" viewBox="0 0 14 14" fill="none" xmlns="http://www.w3.org/2000/svg">
<path d="M12.3384 1.68335H1.66168C0.745437 1.68335 0 2.39922 0 3.27912V10.7209C0 11.6008 0.745437 12.3167 1.66168 12.3167H12.3384C13.2546 12.3167 14 11.6008 14 10.7209V3.27912C14 2.39922 13.2546 1.68335 12.3384 1.68335ZM12.3384 10.9079H1.66168C1.527 10.9079 1.40888 10.8205 1.40888 10.7209V4.26318L6.23766 8.33988C6.33665 8.42349 6.46254 8.46951 6.59216 8.46951L7.40769 8.46955C7.53724 8.46955 7.6632 8.42349 7.76224 8.33988L12.5912 4.26303V10.721C12.5912 10.8205 12.473 10.9079 12.3384 10.9079ZM7.00002 7.07067L2.30343 3.09215H11.6966L7.00002 7.07067Z" fill="#2E86E5"/>
</svg>
