<svg width="112" height="112" viewBox="0 0 112 112" fill="none" xmlns="http://www.w3.org/2000/svg">
<g clip-path="url(#clip0)">
<path d="M107.625 112C105.209 112 103.25 110.041 103.25 107.625C103.25 98.9404 96.2312 91.875 87.6039 91.875H83.8963C75.2688 91.875 68.25 98.9404 68.25 107.625C68.25 110.041 66.2913 112 63.875 112C61.4587 112 59.5 110.041 59.5 107.625C59.5 94.1157 70.4441 83.125 83.8961 83.125H87.6037C101.056 83.125 112 94.1157 112 107.625C112 110.041 110.041 112 107.625 112ZM104.125 57.9688C104.125 47.7162 95.7838 39.375 85.5312 39.375C75.2787 39.375 66.9375 47.7162 66.9375 57.9688C66.9375 68.2213 75.2787 76.5625 85.5312 76.5625C95.7838 76.5625 104.125 68.2213 104.125 57.9688ZM95.375 57.9688C95.375 63.3966 90.9591 67.8125 85.5312 67.8125C80.1034 67.8125 75.6875 63.3966 75.6875 57.9688C75.6875 52.5409 80.1034 48.125 85.5312 48.125C90.9591 48.125 95.375 52.5409 95.375 57.9688ZM50.75 107.625C50.75 105.209 48.7913 103.25 46.375 103.25H26.2454C16.5985 103.25 8.75 95.4015 8.75 85.7546V26.2454C8.75 16.5985 16.5985 8.75 26.2454 8.75H66.509C76.1561 8.75 84.0044 16.5985 84.0044 26.2454C84.0044 28.6617 85.9631 30.6204 88.3794 30.6204C90.7957 30.6204 92.7544 28.6617 92.7544 26.2454C92.7546 11.7738 80.9808 0 66.5046 0H26.2454C11.7738 0 0 11.7738 0 26.2454V85.7544C0 100.226 11.7738 112 26.2454 112H46.375C48.7913 112 50.75 110.041 50.75 107.625ZM57.9688 49.6562C57.9688 47.2399 56.0101 45.2812 53.5938 45.2812H29.9688C27.5524 45.2812 25.5938 47.2399 25.5938 49.6562C25.5938 52.0726 27.5524 54.0312 29.9688 54.0312H53.5938C56.0101 54.0312 57.9688 52.0726 57.9688 49.6562ZM66.7188 32.8125C66.7188 30.3962 64.7601 28.4375 62.3438 28.4375H29.9688C27.5524 28.4375 25.5938 30.3962 25.5938 32.8125C25.5938 35.2288 27.5524 37.1875 29.9688 37.1875H62.3438C64.7601 37.1875 66.7188 35.2288 66.7188 32.8125ZM57.9688 83.125C57.9688 80.7087 56.0101 78.75 53.5938 78.75H29.9688C27.5524 78.75 25.5938 80.7087 25.5938 83.125C25.5938 85.5413 27.5524 87.5 29.9688 87.5H53.5938C56.0101 87.5 57.9688 85.5413 57.9688 83.125ZM57.9688 66.2812C57.9688 63.8649 56.0101 61.9062 53.5938 61.9062H29.9688C27.5524 61.9062 25.5938 63.8649 25.5938 66.2812C25.5938 68.6976 27.5524 70.6562 29.9688 70.6562H53.5938C56.0101 70.6562 57.9688 68.6976 57.9688 66.2812Z" fill="url(#paint0_linear)"/>
</g>
<defs>
<linearGradient id="paint0_linear" x1="56" y1="0" x2="56" y2="112" gradientUnits="userSpaceOnUse">
<stop stop-color="#0056B3"/>
<stop offset="1" stop-color="#2E86E5"/>
</linearGradient>
<clipPath id="clip0">
<rect width="112" height="112" fill="white"/>
</clipPath>
</defs>
</svg>
