<svg width="115" height="115" viewBox="0 0 115 115" fill="none" xmlns="http://www.w3.org/2000/svg">
<path d="M60.8105 43.7085H15.5111V40.0188H60.8105V43.7085ZM15.5111 60.1468H50.4047V56.4333H15.5111V60.1468ZM15.5111 72.8633V76.5645H50.4047V72.8633H15.5111ZM15.5111 92.9899H60.8105V89.2881H15.5111V92.9899ZM76.5671 103.315L81.8291 98.0528C80.0415 97.9667 78.2769 97.7238 76.5671 97.3138V103.315ZM6.86397 89.6871V16.3059C6.86397 5.22155 7.75843 4.32387 18.8409 4.32387H75.9219C87.0147 4.32387 87.9033 5.2254 87.9033 16.3059V40.2225C89.3825 40.4667 90.8219 40.831 92.2304 41.293V16.3059C92.2298 2.84853 89.3735 0 75.9213 0H18.8447C5.39504 0 2.54266 2.84853 2.54266 16.3059V89.6871C2.54266 103.139 5.39504 105.996 18.8454 105.996H73.8875V101.669H18.8447C7.75778 101.669 6.86397 100.776 6.86397 89.6871ZM95.8218 90.7711C83.8018 97.7006 68.3698 93.585 61.4306 81.5489C54.4953 69.5373 58.6309 54.1053 70.6509 47.1655C82.6709 40.2341 98.1029 44.3581 105.043 56.3819C111.989 68.398 107.849 83.8339 95.8218 90.7711ZM93.7443 87.1676C103.78 81.369 107.224 68.5034 101.441 58.4696C95.6496 48.4371 82.7769 44.9897 72.745 50.7729C62.7048 56.5618 59.2523 69.4268 65.0605 79.4664C70.843 89.4918 83.7118 92.97 93.7443 87.1676ZM102.153 89.2097L91.3302 95.4703L99.6644 109.892L110.487 103.632L102.153 89.2097ZM111.617 105.612L100.791 111.868C102.52 114.865 106.346 115.887 109.336 114.161C112.326 112.436 113.343 108.609 111.617 105.612Z" fill="url(#paint0_linear)"/>
<defs>
<linearGradient id="paint0_linear" x1="57.5" y1="0" x2="57.5" y2="115" gradientUnits="userSpaceOnUse">
<stop stop-color="#0056B3"/>
<stop offset="1" stop-color="#2E86E5"/>
</linearGradient>
</defs>
</svg>
