<svg width="14" height="14" viewBox="0 0 14 14" fill="none" xmlns="http://www.w3.org/2000/svg">
<g clip-path="url(#clip0)">
<path d="M13.6406 10.3259L11.9002 8.58552C11.4203 8.10572 10.6396 8.10572 10.1598 8.58552L9.36868 9.37661C9.00517 9.74011 8.41367 9.74 8.0503 9.37674L4.62139 5.9449C4.25703 5.58054 4.25698 4.99082 4.62139 4.62641C4.74881 4.49899 5.1147 4.1331 5.41247 3.83533C5.89019 3.35763 5.89687 2.57929 5.412 2.09448L3.67206 0.360009C3.19223 -0.119793 2.41149 -0.119793 1.93294 0.358751C1.57485 0.713728 1.45935 0.828244 1.29878 0.987413C-0.431531 2.7177 -0.431531 5.5331 1.2987 7.26334L6.7317 12.6992C8.46606 14.4336 11.2732 14.4337 13.0077 12.6992L13.6406 12.0663C14.1204 11.5865 14.1204 10.8058 13.6406 10.3259ZM2.51181 0.940135C2.67174 0.780201 2.93195 0.780174 3.0924 0.940573L4.83234 2.67505C4.99266 2.83536 4.99266 3.09483 4.83234 3.25517L4.54225 3.54524L2.22322 1.22621L2.51181 0.940135ZM7.31193 12.1191L1.87891 6.68324C0.540213 5.34454 0.466631 3.24248 1.65261 1.81588L3.96492 4.12818C3.35734 4.81694 3.38266 5.86648 4.04112 6.52495L7.46993 9.95662C7.46995 9.95665 7.47001 9.9567 7.47004 9.95673C8.12779 10.6145 9.17727 10.6415 9.86689 10.0331L12.1792 12.3454C10.7572 13.5294 8.65985 13.467 7.31193 12.1191ZM13.0605 11.4862L12.7704 11.7763L10.4499 9.45571L10.7399 9.16565C10.8999 9.00571 11.1601 9.00569 11.32 9.16565L13.0605 10.9061C13.2204 11.066 13.2204 11.3263 13.0605 11.4862Z" fill="#2E86E5"/>
</g>
<defs>
<clipPath id="clip0">
<rect width="14" height="14" fill="white"/>
</clipPath>
</defs>
</svg>
