<svg width="27" height="27" viewBox="0 0 27 27" fill="none" xmlns="http://www.w3.org/2000/svg">
<path id="Vector" fill-rule="evenoddz" clip-rule="evenodd" d="M22.4538 4.5091C20.0857 2.13821 16.9363 0.831957 13.5811 0.830566C6.66745 0.830566 1.04073 6.45713 1.03795 13.3726C1.03702 15.5833 1.61453 17.7413 2.71222 19.6435L0.932739 26.1431L7.58206 24.3988C9.41422 25.3982 11.4769 25.9249 13.576 25.9255H13.5813C20.4942 25.9255 26.1215 20.2985 26.1241 13.3827C26.1255 10.0311 24.822 6.87983 22.4538 4.5091ZM13.5811 23.8073H13.5768C11.7062 23.8065 9.87153 23.3038 8.27065 22.3541L7.89012 22.128L3.94432 23.1632L4.99751 19.3161L4.74954 18.9216C3.70593 17.2618 3.15484 15.3432 3.15577 13.3734C3.15793 7.62542 7.83482 2.94901 13.5853 2.94901C16.3699 2.94993 18.9875 4.03572 20.9558 6.00631C22.9241 7.9769 24.0074 10.5962 24.0065 13.3819C24.004 19.1304 19.3274 23.8073 13.5811 23.8073V23.8073ZM19.2996 15.9992C18.9863 15.8423 17.4453 15.0843 17.158 14.9795C16.8709 14.875 16.6617 14.8229 16.453 15.1365C16.244 15.4501 15.6435 16.1562 15.4605 16.3652C15.2776 16.5744 15.095 16.6007 14.7815 16.4437C14.4681 16.2869 13.4583 15.9558 12.2611 14.8881C11.3295 14.0571 10.7005 13.0307 10.5176 12.7171C10.335 12.4032 10.5161 12.2499 10.6551 12.0775C10.9944 11.6562 11.3341 11.2145 11.4386 11.0055C11.5432 10.7963 11.4908 10.6132 11.4123 10.4564C11.3341 10.2996 10.7073 8.75694 10.4462 8.12923C10.1916 7.51836 9.93348 7.60086 9.74098 7.59128C9.55836 7.58216 9.34933 7.58031 9.1403 7.58031C8.93142 7.58031 8.59184 7.65864 8.30448 7.97257C8.01727 8.28635 7.20772 9.04446 7.20772 10.5871C7.20772 12.1297 8.33075 13.62 8.4874 13.8292C8.64406 14.0384 10.6975 17.204 13.8413 18.5614C14.589 18.8846 15.1727 19.0772 15.628 19.2217C16.3789 19.4602 17.0619 19.4265 17.602 19.3459C18.2042 19.2558 19.4561 18.5876 19.7175 17.8556C19.9786 17.1235 19.9786 16.4961 19.9001 16.3652C19.8219 16.2345 19.6129 16.1562 19.2996 15.9992V15.9992Z" fill="#2E86E5"/>
</svg>
